<svg width="512" height="512" viewBox="0 0 512 512" fill="none" xmlns="http://www.w3.org/2000/svg">
<path d="M0 256C0 114.615 114.615 0 256 0V0C397.385 0 512 114.615 512 256V256C512 397.385 397.385 512 256 512V512C114.615 512 0 397.385 0 256V256Z" fill="white"/>
<path d="M76 21C187.87 21 299.74 21 415 21C414.466 32.21 413.933 43.3675 413.044 54.5473C412.979 55.3723 412.914 56.1973 412.847 57.0473C412.779 57.9007 412.712 58.7541 412.642 59.6334C412.499 61.4779 412.355 63.3225 412.212 65.1671C411.827 70.1104 411.439 75.0534 411.05 79.9963C410.642 85.1961 410.236 90.3962 409.83 95.5963C409.15 104.311 408.467 113.026 407.782 121.741C406.992 131.801 406.205 141.862 405.42 151.922C404.581 162.674 403.739 173.426 402.897 184.178C402.656 187.263 402.414 190.348 402.173 193.433C401.795 198.279 401.414 203.126 401.033 207.972C400.894 209.746 400.755 211.52 400.617 213.294C400.427 215.722 400.236 218.149 400.044 220.577C399.991 221.272 399.937 221.968 399.881 222.684C399.505 227.421 399.007 232.136 398.463 236.857C395.126 235.299 393.001 233.423 390.425 230.771C389.691 230.021 388.956 229.27 388.2 228.497C387.646 227.921 387.091 227.346 386.52 226.753C382.84 228.234 380.338 230.816 377.585 233.574C377.081 234.073 376.578 234.572 376.06 235.086C374.993 236.147 373.929 237.211 372.868 238.276C371.279 239.867 369.68 241.445 368.078 243.023C359.353 251.694 350.859 260.798 345.696 272.106C345.41 272.699 345.124 273.292 344.829 273.903C342.998 277.735 341.319 281.628 339.667 285.539C336.882 284.636 334.138 283.696 331.416 282.615C315.617 276.439 299.319 275.915 282.535 275.722C280.667 275.692 278.799 275.66 276.931 275.627C272.426 275.551 267.92 275.489 263.415 275.435C263.479 281.036 263.56 286.637 263.656 292.238C263.686 294.136 263.712 296.034 263.733 297.932C263.912 313.597 264.986 327.993 270.775 342.711C271.683 345.244 271.683 345.244 271.683 348C215.596 348 159.51 348 101.724 348C100.63 337.613 99.5602 327.268 98.7584 316.862C98.6585 315.588 98.5584 314.313 98.4581 313.039C98.1878 309.599 97.9204 306.158 97.6535 302.717C97.3634 298.983 97.0706 295.25 96.7781 291.516C96.2078 284.23 95.6399 276.944 95.0729 269.658C94.4121 261.166 93.7488 252.675 93.0854 244.183C91.9024 229.039 90.7217 213.894 89.5423 198.75C88.3982 184.058 87.2522 169.367 86.1043 154.676C84.8522 138.651 83.601 122.626 82.3514 106.6C82.2854 105.754 82.2194 104.907 82.1514 104.035C82.0188 102.335 81.8863 100.634 81.7537 98.9341C81.2921 93.0146 80.8299 87.0952 80.3675 81.1757C79.8049 73.9733 79.2433 66.7709 78.6831 59.5683C78.3973 55.8936 78.111 52.2189 77.8235 48.5444C77.5605 45.1835 77.2989 41.8226 77.0383 38.4616C76.8987 36.6653 76.7577 34.869 76.6166 33.0727C76.5345 32.0107 76.4525 30.9487 76.3679 29.8544C76.2963 28.9361 76.2248 28.0178 76.151 27.0717C76.0238 25.0512 76 23.0245 76 21Z" fill="black"/>
<path d="M31 457C172.9 457 314.8 457 461 457C461 468.22 461 479.44 461 491C319.1 491 177.2 491 31 491C31 479.78 31 468.56 31 457Z" fill="black"/>
<path d="M104 373.951C128.591 373.779 153.181 373.65 177.773 373.57C189.191 373.532 200.609 373.481 212.027 373.397C221.981 373.323 231.934 373.276 241.888 373.26C247.157 373.25 252.426 373.228 257.695 373.174C262.658 373.124 267.621 373.109 272.584 373.12C274.402 373.118 276.22 373.103 278.038 373.075C293.47 372.847 293.47 372.847 299.333 377.541C300.563 378.783 301.783 380.036 302.988 381.302C305.202 382.779 307.492 384.008 309.866 385.207C310.447 385.51 311.028 385.812 311.626 386.124C316.267 388.503 321.003 390.568 325.913 392.328C325.992 393.362 326.071 394.396 326.153 395.461C327.27 408.271 330.211 418.399 336 430C260.953 430 185.906 430 108.585 430C106.477 409.936 106.477 409.936 105.97 402.396C105.912 401.564 105.853 400.732 105.793 399.875C105.613 397.302 105.437 394.729 105.261 392.156C105.137 390.376 105.013 388.596 104.888 386.817C104.589 382.528 104.293 378.24 104 373.951Z" fill="#FFC13C"/>
<path d="M404.533 369.464C411.501 374.478 416.722 381.692 418.63 390.128C419.89 401.63 418.092 411.244 410.747 420.489C405.134 426.388 397.23 430.35 389.109 430.983C378.679 431.205 370.579 429.311 362.476 422.491C355.778 415.641 352.32 406.561 352 397.054C352.324 387.808 355.398 380.419 361.551 373.504C373.784 362.551 390.456 360.877 404.533 369.464Z" fill="black"/>
<path d="M384.317 262C394.942 266.846 401.584 279.371 405.534 289.857C410.546 303.473 410.023 320.102 404.611 333.5C403.503 335.821 402.343 337.853 400.921 340C399.856 339.847 398.791 339.694 397.693 339.536C388.396 338.499 378.809 338.67 369.558 340C361.354 325.842 360.316 309.49 364.11 293.771C367.759 280.74 375.239 271.671 384.317 262Z" fill="#FFC13C"/>
<path d="M290.063 302.068C305.916 301.515 318.475 304.275 332.307 312.128C333.017 312.483 333.727 312.838 334.459 313.203C337.038 316.032 337.129 319.589 337.702 323.274C339.227 331.935 341.78 339.699 345.163 347.795C345.777 349.319 346.39 350.842 347 352.368C346.6 352.734 346.2 353.101 345.788 353.479C341.469 357.583 338.199 361.953 335.062 367C321.581 365.605 311.805 357.378 303.042 347.738C294.095 336.659 289.827 322.659 290.005 308.584C290.009 307.955 290.014 307.325 290.018 306.677C290.029 305.141 290.045 303.604 290.063 302.068Z" fill="#FFC13C"/>
<path d="M473.905 302.004C474.579 302.008 475.253 302.013 475.948 302.017C477.596 302.027 479.244 302.044 480.891 302.061C481.622 319.751 478.869 335.218 466.747 349.05C465.37 350.477 463.978 351.889 462.566 353.281C462.004 353.862 461.442 354.443 460.862 355.042C454.531 361.133 445.673 365.963 436.911 367C436.435 366.393 435.959 365.786 435.469 365.16C431.421 359.946 431.421 359.946 426.775 355.281C426.189 354.621 425.604 353.961 425 353.281C425.37 349.259 427.065 345.623 428.55 341.905C431.558 334.154 433.856 326.283 434.366 317.935C435.079 314.866 435.079 314.866 437.291 312.801C448.812 306.113 460.414 301.846 473.905 302.004Z" fill="#FFC13C"/>
</svg>
